<svg xmlns="http://www.w3.org/2000/svg" width="1280" height="720" viewBox="0 0 1280 720">
  <defs>
    <linearGradient id="chapterBg" x1="0" y1="0" x2="1" y2="1">
      <stop offset="0%" stop-color="#062A45"/>
      <stop offset="70%" stop-color="#00467F"/>
      <stop offset="100%" stop-color="#19A7CE"/>
    </linearGradient>
    <pattern id="dots" width="28" height="28" patternUnits="userSpaceOnUse">
      <circle cx="2" cy="2" r="1.2" fill="#FFFFFF" fill-opacity="0.13"/>
    </pattern>
  </defs>
  <rect width="1280" height="720" fill="url(#chapterBg)"/>
  <rect width="1280" height="720" fill="url(#dots)"/>
  <path d="M760 720C842 574 930 510 1044 528C1148 544 1214 476 1280 346V720Z" fill="#46B36B" fill-opacity="0.20"/>
  <path d="M730 720C850 520 984 454 1132 522C1190 548 1238 510 1280 456V720Z" fill="#FFFFFF" fill-opacity="0.10"/>
  <text x="86" y="182" font-family="Arial, sans-serif" font-size="132" font-weight="700" fill="#FFFFFF" fill-opacity="0.14">{{CHAPTER_NUM}}</text>
  <path d="M90 244H310" stroke="#19A7CE" stroke-width="6" stroke-linecap="round"/>
  <text x="92" y="330" font-family="Microsoft YaHei, PingFang SC, Arial, sans-serif" font-size="48" font-weight="700" fill="#FFFFFF">{{CHAPTER_TITLE}}</text>
  <text x="96" y="384" font-family="Microsoft YaHei, PingFang SC, Arial, sans-serif" font-size="20" fill="#D8F3F8">{{SUBTITLE}}</text>
  <rect x="92" y="456" width="470" height="1" fill="#FFFFFF" fill-opacity="0.28"/>
  <text x="96" y="500" font-family="Microsoft YaHei, PingFang SC, Arial, sans-serif" font-size="15" fill="#BFEAF3">water environment · operations · sustainability</text>
  <circle cx="1048" cy="202" r="72" fill="#FFFFFF" fill-opacity="0.10"/>
  <path d="M990 208C1018 176 1048 176 1076 208C1106 240 1136 240 1164 208" fill="none" stroke="#FFFFFF" stroke-width="7" stroke-linecap="round" stroke-opacity="0.72"/>
</svg>
