<svg xmlns="http://www.w3.org/2000/svg" width="1280" height="720" viewBox="0 0 1280 720">
  <defs>
    <linearGradient id="top" x1="0" y1="0" x2="1" y2="0">
      <stop offset="0%" stop-color="#00467F"/>
      <stop offset="100%" stop-color="#19A7CE"/>
    </linearGradient>
  </defs>
  <rect width="1280" height="720" fill="#F7FBFD"/>
  <rect x="0" y="0" width="1280" height="12" fill="url(#top)"/>
  <path d="M908 0C1024 96 1052 232 996 396C958 506 1036 620 1280 690V0Z" fill="#19A7CE" fill-opacity="0.10"/>
  <text x="80" y="92" font-family="Microsoft YaHei, PingFang SC, Arial, sans-serif" font-size="14" font-weight="700" fill="#19A7CE">AGENDA</text>
  <text x="80" y="142" font-family="Microsoft YaHei, PingFang SC, Arial, sans-serif" font-size="40" font-weight="700" fill="#00467F">{{PAGE_TITLE}}</text>
  <line x1="80" y1="178" x2="1200" y2="178" stroke="#D6E2E8" stroke-width="1"/>
  <line x1="182" y1="278" x2="1098" y2="278" stroke="#B6D4DE" stroke-width="3" stroke-linecap="round"/>
  <circle cx="200" cy="278" r="12" fill="#19A7CE"/>
  <circle cx="496" cy="278" r="12" fill="#46B36B"/>
  <circle cx="792" cy="278" r="12" fill="#19A7CE"/>
  <circle cx="1088" cy="278" r="12" fill="#46B36B"/>
  <rect x="104" y="322" width="220" height="188" rx="8" fill="#FFFFFF" stroke="#D6E2E8"/>
  <rect x="400" y="322" width="220" height="188" rx="8" fill="#FFFFFF" stroke="#D6E2E8"/>
  <rect x="696" y="322" width="220" height="188" rx="8" fill="#FFFFFF" stroke="#D6E2E8"/>
  <rect x="992" y="322" width="220" height="188" rx="8" fill="#FFFFFF" stroke="#D6E2E8"/>
  <text x="128" y="376" font-family="Arial, sans-serif" font-size="36" font-weight="700" fill="#19A7CE">01</text>
  <text x="424" y="376" font-family="Arial, sans-serif" font-size="36" font-weight="700" fill="#46B36B">02</text>
  <text x="720" y="376" font-family="Arial, sans-serif" font-size="36" font-weight="700" fill="#19A7CE">03</text>
  <text x="1016" y="376" font-family="Arial, sans-serif" font-size="36" font-weight="700" fill="#46B36B">04</text>
  <text x="128" y="424" font-family="Microsoft YaHei, PingFang SC, Arial, sans-serif" font-size="22" font-weight="700" fill="#1B2B34">{{TOC_ITEM_1_TITLE}}</text>
  <text x="424" y="424" font-family="Microsoft YaHei, PingFang SC, Arial, sans-serif" font-size="22" font-weight="700" fill="#1B2B34">{{TOC_ITEM_2_TITLE}}</text>
  <text x="720" y="424" font-family="Microsoft YaHei, PingFang SC, Arial, sans-serif" font-size="22" font-weight="700" fill="#1B2B34">{{TOC_ITEM_3_TITLE}}</text>
  <text x="1016" y="424" font-family="Microsoft YaHei, PingFang SC, Arial, sans-serif" font-size="22" font-weight="700" fill="#1B2B34">{{TOC_ITEM_4_TITLE}}</text>
  <text x="128" y="462" font-family="Microsoft YaHei, PingFang SC, Arial, sans-serif" font-size="15" fill="#5A6B75">{{TOC_ITEM_1_DESC}}</text>
  <text x="424" y="462" font-family="Microsoft YaHei, PingFang SC, Arial, sans-serif" font-size="15" fill="#5A6B75">{{TOC_ITEM_2_DESC}}</text>
  <text x="720" y="462" font-family="Microsoft YaHei, PingFang SC, Arial, sans-serif" font-size="15" fill="#5A6B75">{{TOC_ITEM_3_DESC}}</text>
  <text x="1016" y="462" font-family="Microsoft YaHei, PingFang SC, Arial, sans-serif" font-size="15" fill="#5A6B75">{{TOC_ITEM_4_DESC}}</text>
  <text x="80" y="662" font-family="Microsoft YaHei, PingFang SC, Arial, sans-serif" font-size="13" fill="#5A6B75">{{AUTHOR}}</text>
  <text x="1160" y="662" font-family="Arial, sans-serif" font-size="13" fill="#5A6B75">02</text>
</svg>
