<svg xmlns="http://www.w3.org/2000/svg" width="1280" height="720" viewBox="0 0 1280 720">
  <defs>
    <linearGradient id="footerArc" x1="0" y1="0" x2="1" y2="0">
      <stop offset="0%" stop-color="#00467F"/>
      <stop offset="55%" stop-color="#19A7CE"/>
      <stop offset="100%" stop-color="#46B36B"/>
    </linearGradient>
  </defs>
  <rect width="1280" height="720" fill="#F7FBFD"/>
  <path d="M0 526C188 476 354 484 518 550C706 626 884 628 1280 470V720H0Z" fill="url(#footerArc)" fill-opacity="0.92"/>
  <path d="M0 574C208 520 362 538 520 594C714 662 910 664 1280 538V720H0Z" fill="#062A45" fill-opacity="0.20"/>
  <text x="86" y="176" font-family="Microsoft YaHei, PingFang SC, Arial, sans-serif" font-size="56" font-weight="700" fill="#00467F">{{THANK_YOU}}</text>
  <text x="90" y="232" font-family="Microsoft YaHei, PingFang SC, Arial, sans-serif" font-size="22" fill="#5A6B75">{{SUBTITLE}}</text>
  <rect x="90" y="304" width="500" height="1" fill="#D6E2E8"/>
  <text x="92" y="354" font-family="Microsoft YaHei, PingFang SC, Arial, sans-serif" font-size="18" fill="#1B2B34">{{CONTACT_INFO}}</text>
  <text x="92" y="394" font-family="Microsoft YaHei, PingFang SC, Arial, sans-serif" font-size="15" fill="#5A6B75">{{AUTHOR}}</text>
  <circle cx="1012" cy="198" r="96" fill="#FFFFFF" stroke="#D6E2E8"/>
  <path d="M936 206C974 160 1014 160 1052 206C1090 250 1130 250 1168 206" fill="none" stroke="#19A7CE" stroke-width="9" stroke-linecap="round"/>
  <path d="M958 232C986 202 1014 202 1042 232C1070 262 1098 262 1126 232" fill="none" stroke="#46B36B" stroke-width="6" stroke-linecap="round"/>
  <text x="880" y="336" font-family="Microsoft YaHei, PingFang SC, Arial, sans-serif" font-size="15" fill="#5A6B75">clean water · resilient operations · sustainable growth</text>
</svg>
