<svg xmlns="http://www.w3.org/2000/svg" viewBox="0 0 1280 720" width="1280" height="720">
  <rect width="1280" height="720" fill="#FFFFFF" />

  
  <rect width="1280" height="4" fill="#1E5AA8" />
  <rect x="0" y="4" width="5" height="716" fill="#1E5AA8" />

  
  <rect x="0" y="4" width="1280" height="76" fill="#F4F8FF" />
  <path fill="#1E5AA8" d="M52,50 H53 A2,2 0 0 1 55,52 V72 A2,2 0 0 1 53,74 H52 A2,2 0 0 1 50,72 V52 A2,2 0 0 1 52,50 Z" />
  <text x="68" y="72" font-family="Microsoft YaHei, Arial, sans-serif" font-size="28" font-weight="800" fill="#0F2D5E">系统一 · 共享资源管理平台</text>
  
  <text x="1200" y="72" font-family="Consolas, monospace" font-size="13" fill="#6B95BE" text-anchor="end">rsp.towngas.com.cn</text>

  
  <path fill="#F0F4FF" stroke="#C5D9F5" stroke-width="1.5" d="M62,110 H598 A12,12 0 0 1 610,122 V348 A12,12 0 0 1 598,360 H62 A12,12 0 0 1 50,348 V122 A12,12 0 0 1 62,110 Z" />
  
  <path fill="#1E5AA8" d="M53,110 H607 A3,3 0 0 1 610,113 V114 A3,3 0 0 1 607,117 H53 A3,3 0 0 1 50,114 V113 A3,3 0 0 1 53,110 Z" />

  
  <path fill="#1E5AA8" d="M94,138 H146 A14,14 0 0 1 160,152 V152 A14,14 0 0 1 146,166 H94 A14,14 0 0 1 80,152 V152 A14,14 0 0 1 94,138 Z" />
  <text x="120" y="157" font-family="Microsoft YaHei, Arial, sans-serif" font-size="12" font-weight="700" fill="#FFFFFF" text-anchor="middle">风险说明</text>

  
  <path fill="#DBEAFE" d="M90,184 H122 A10,10 0 0 1 132,194 V226 A10,10 0 0 1 122,236 H90 A10,10 0 0 1 80,226 V194 A10,10 0 0 1 90,184 Z" />
  <text x="106" y="220" font-family="Arial, sans-serif" font-size="28" fill="#1E5AA8" text-anchor="middle" font-weight="900">!</text>

  <text x="150" y="205" font-family="Microsoft YaHei, Arial, sans-serif" font-size="17" font-weight="800" fill="#0F2D5E">管理端口暴露于公网</text>
  <text x="150" y="228" font-family="Microsoft YaHei, Arial, sans-serif" font-size="13" fill="#4A7BB5">3389 / 5985 / 5986 端口直接暴露，存在被扫描和攻击风险</text>

  
  <path fill="#1E5AA8" opacity="0.1" d="M86,260 H138 A6,6 0 0 1 144,266 V282 A6,6 0 0 1 138,288 H86 A6,6 0 0 1 80,282 V266 A6,6 0 0 1 86,260 Z" />
  <path fill="#FFFFFF" stroke="#1E5AA8" stroke-width="1" d="M88,264 H136 A4,4 0 0 1 140,268 V280 A4,4 0 0 1 136,284 H88 A4,4 0 0 1 84,280 V268 A4,4 0 0 1 88,264 Z" />
  <text x="112" y="279" font-family="Consolas, monospace" font-size="13" font-weight="700" fill="#1E5AA8" text-anchor="middle">3389</text>

  <path fill="#1E5AA8" opacity="0.1" d="M162,260 H214 A6,6 0 0 1 220,266 V282 A6,6 0 0 1 214,288 H162 A6,6 0 0 1 156,282 V266 A6,6 0 0 1 162,260 Z" />
  <path fill="#FFFFFF" stroke="#1E5AA8" stroke-width="1" d="M164,264 H212 A4,4 0 0 1 216,268 V280 A4,4 0 0 1 212,284 H164 A4,4 0 0 1 160,280 V268 A4,4 0 0 1 164,264 Z" />
  <text x="188" y="279" font-family="Consolas, monospace" font-size="13" font-weight="700" fill="#1E5AA8" text-anchor="middle">5985</text>

  <path fill="#1E5AA8" opacity="0.1" d="M238,260 H290 A6,6 0 0 1 296,266 V282 A6,6 0 0 1 290,288 H238 A6,6 0 0 1 232,282 V266 A6,6 0 0 1 238,260 Z" />
  <path fill="#FFFFFF" stroke="#1E5AA8" stroke-width="1" d="M240,264 H288 A4,4 0 0 1 292,268 V280 A4,4 0 0 1 288,284 H240 A4,4 0 0 1 236,280 V268 A4,4 0 0 1 240,264 Z" />
  <text x="264" y="279" font-family="Consolas, monospace" font-size="13" font-weight="700" fill="#1E5AA8" text-anchor="middle">5986</text>

  
  <text x="80" y="318" font-family="Microsoft YaHei, Arial, sans-serif" font-size="12" fill="#5A8FC0">3389 — Windows 远程桌面协议（RDP）</text>
  <text x="80" y="338" font-family="Microsoft YaHei, Arial, sans-serif" font-size="12" fill="#5A8FC0">5985/5986 — Windows 远程管理服务（WinRM）</text>

  
  <path fill="#1E5AA8" d="M92,356 H136 A12,12 0 0 1 148,368 V368 A12,12 0 0 1 136,380 H92 A12,12 0 0 1 80,368 V368 A12,12 0 0 1 92,356 Z" />
  <text x="114" y="372" font-family="Microsoft YaHei, Arial, sans-serif" font-size="10" font-weight="700" fill="#FFFFFF" text-anchor="middle">高风险</text>

  
  <path fill="#F0FDF4" stroke="#BBF7D0" stroke-width="1.5" d="M642,110 H1218 A12,12 0 0 1 1230,122 V658 A12,12 0 0 1 1218,670 H642 A12,12 0 0 1 630,658 V122 A12,12 0 0 1 642,110 Z" />
  <path fill="#16A34A" d="M633,110 H1227 A3,3 0 0 1 1230,113 V114 A3,3 0 0 1 1227,117 H633 A3,3 0 0 1 630,114 V113 A3,3 0 0 1 633,110 Z" />

  <path fill="#16A34A" d="M674,138 H726 A14,14 0 0 1 740,152 V152 A14,14 0 0 1 726,166 H674 A14,14 0 0 1 660,152 V152 A14,14 0 0 1 674,138 Z" />
  <text x="700" y="157" font-family="Microsoft YaHei, Arial, sans-serif" font-size="12" font-weight="700" fill="#FFFFFF" text-anchor="middle">应对策略</text>

  
  <path fill="#DCFCE7" d="M670,184 H702 A10,10 0 0 1 712,194 V226 A10,10 0 0 1 702,236 H670 A10,10 0 0 1 660,226 V194 A10,10 0 0 1 670,184 Z" />
  <text x="686" y="220" font-family="Arial, sans-serif" font-size="26" fill="#16A34A" text-anchor="middle" font-weight="900">✓</text>

  <text x="730" y="205" font-family="Microsoft YaHei, Arial, sans-serif" font-size="16" font-weight="800" fill="#14532D">分阶段消除公网暴露</text>
  <text x="730" y="228" font-family="Microsoft YaHei, Arial, sans-serif" font-size="13" fill="#4A7A60">从临时止血到长期治本，层层递进</text>

  
  <path fill="#FFFFFF" stroke="#D1FAE5" stroke-width="1" d="M668,262 H1202 A8,8 0 0 1 1210,270 V374 A8,8 0 0 1 1202,382 H668 A8,8 0 0 1 660,374 V270 A8,8 0 0 1 668,262 Z" />
  <path fill="#F59E0B" d="M662,262 H663 A2,2 0 0 1 665,264 V380 A2,2 0 0 1 663,382 H662 A2,2 0 0 1 660,380 V264 A2,2 0 0 1 662,262 Z" />
  <path fill="#FEF3C7" d="M684,280 H740 A4,4 0 0 1 744,284 V300 A4,4 0 0 1 740,304 H684 A4,4 0 0 1 680,300 V284 A4,4 0 0 1 684,280 Z" />
  <text x="712" y="297" font-family="Microsoft YaHei, Arial, sans-serif" font-size="11" font-weight="700" fill="#D97706" text-anchor="middle">临时</text>
  <text x="756" y="297" font-family="Microsoft YaHei, Arial, sans-serif" font-size="13" font-weight="700" fill="#1C2A1C">强密码策略 + 双因素认证（2FA）</text>
  <text x="680" y="325" font-family="Microsoft YaHei, Arial, sans-serif" font-size="12" fill="#4A7A60">立即启用复杂密码，要求所有管理员账户开启 2FA，防止</text>
  <text x="680" y="344" font-family="Microsoft YaHei, Arial, sans-serif" font-size="12" fill="#4A7A60">凭证被暴力破解</text>

  
  <path fill="#FFFFFF" stroke="#D1FAE5" stroke-width="1" d="M668,394 H1202 A8,8 0 0 1 1210,402 V506 A8,8 0 0 1 1202,514 H668 A8,8 0 0 1 660,506 V402 A8,8 0 0 1 668,394 Z" />
  <path fill="#3B82F6" d="M662,394 H663 A2,2 0 0 1 665,396 V512 A2,2 0 0 1 663,514 H662 A2,2 0 0 1 660,512 V396 A2,2 0 0 1 662,394 Z" />
  <path fill="#DBEAFE" d="M684,412 H740 A4,4 0 0 1 744,416 V432 A4,4 0 0 1 740,436 H684 A4,4 0 0 1 680,432 V416 A4,4 0 0 1 684,412 Z" />
  <text x="712" y="429" font-family="Microsoft YaHei, Arial, sans-serif" font-size="11" font-weight="700" fill="#1A56DB" text-anchor="middle">中期</text>
  <text x="756" y="429" font-family="Microsoft YaHei, Arial, sans-serif" font-size="13" font-weight="700" fill="#1C2A1C">云端安全组限制管理 IP 白名单</text>
  <text x="680" y="457" font-family="Microsoft YaHei, Arial, sans-serif" font-size="12" fill="#4A7A60">配置华为云安全组规则，仅允许可信 IP 访问</text>
  <text x="680" y="476" font-family="Microsoft YaHei, Arial, sans-serif" font-size="12" fill="#4A7A60">3389/5985/5986 管理端口</text>

  
  <path fill="#FFFFFF" stroke="#D1FAE5" stroke-width="1" d="M668,526 H1202 A8,8 0 0 1 1210,534 V638 A8,8 0 0 1 1202,646 H668 A8,8 0 0 1 660,638 V534 A8,8 0 0 1 668,526 Z" />
  <path fill="#16A34A" d="M662,526 H663 A2,2 0 0 1 665,528 V644 A2,2 0 0 1 663,646 H662 A2,2 0 0 1 660,644 V528 A2,2 0 0 1 662,526 Z" />
  <path fill="#DCFCE7" d="M684,544 H740 A4,4 0 0 1 744,548 V564 A4,4 0 0 1 740,568 H684 A4,4 0 0 1 680,564 V548 A4,4 0 0 1 684,544 Z" />
  <text x="712" y="561" font-family="Microsoft YaHei, Arial, sans-serif" font-size="11" font-weight="700" fill="#16A34A" text-anchor="middle">长期</text>
  <text x="756" y="561" font-family="Microsoft YaHei, Arial, sans-serif" font-size="13" font-weight="700" fill="#1C2A1C">VPN 内网访问，彻底切断公网暴露</text>
  <text x="680" y="589" font-family="Microsoft YaHei, Arial, sans-serif" font-size="12" fill="#4A7A60">华为云与客户内网 VPN 打通后，关闭所有公网管理端口，</text>
  <text x="680" y="608" font-family="Microsoft YaHei, Arial, sans-serif" font-size="12" fill="#4A7A60">管理员统一通过 VPN 隧道访问</text>

  
  <text x="640" y="700" font-family="Arial, sans-serif" font-size="11" fill="#A0BDD8" text-anchor="middle">3 / 6</text>
</svg>