<svg xmlns="http://www.w3.org/2000/svg" viewBox="0 0 1280 720" width="1280" height="720">
  <rect width="1280" height="720" fill="#FFFFFF" />

  
  <rect width="1280" height="4" fill="#1E5AA8" />
  <rect x="0" y="4" width="5" height="716" fill="#1E5AA8" />

  
  <rect x="0" y="4" width="1280" height="76" fill="#F4F8FF" />
  <path fill="#1E5AA8" d="M52,50 H53 A2,2 0 0 1 55,52 V72 A2,2 0 0 1 53,74 H52 A2,2 0 0 1 50,72 V52 A2,2 0 0 1 52,50 Z" />
  <text x="68" y="72" font-family="Microsoft YaHei, Arial, sans-serif" font-size="28" font-weight="800" fill="#0F2D5E">系统三 · 后台管理系统</text>
  <text x="1200" y="72" font-family="Consolas, monospace" font-size="13" fill="#6B95BE" text-anchor="end">houtai.towngas.com.cn</text>

  
  <path fill="#F0F4FF" stroke="#C5D9F5" stroke-width="1.5" d="M62,110 H598 A12,12 0 0 1 610,122 V348 A12,12 0 0 1 598,360 H62 A12,12 0 0 1 50,348 V122 A12,12 0 0 1 62,110 Z" />
  <path fill="#1E5AA8" d="M53,110 H607 A3,3 0 0 1 610,113 V114 A3,3 0 0 1 607,117 H53 A3,3 0 0 1 50,114 V113 A3,3 0 0 1 53,110 Z" />

  <path fill="#1E5AA8" d="M94,138 H146 A14,14 0 0 1 160,152 V152 A14,14 0 0 1 146,166 H94 A14,14 0 0 1 80,152 V152 A14,14 0 0 1 94,138 Z" />
  <text x="120" y="157" font-family="Microsoft YaHei, Arial, sans-serif" font-size="12" font-weight="700" fill="#FFFFFF" text-anchor="middle">风险说明</text>

  
  <path fill="#DBEAFE" d="M90,184 H122 A10,10 0 0 1 132,194 V226 A10,10 0 0 1 122,236 H90 A10,10 0 0 1 80,226 V194 A10,10 0 0 1 90,184 Z" />
  <text x="106" y="220" font-family="Arial, sans-serif" font-size="28" fill="#1E5AA8" text-anchor="middle" font-weight="900">!</text>

  <text x="150" y="205" font-family="Microsoft YaHei, Arial, sans-serif" font-size="17" font-weight="800" fill="#0F2D5E">管理登录页暴露于公网</text>
  <text x="150" y="228" font-family="Microsoft YaHei, Arial, sans-serif" font-size="13" fill="#4A7BB5">/cmsLogin 后台管理登录路径直接暴露，存在被扫描和攻击风险</text>

  
  <path fill="#1E5AA8" opacity="0.1" d="M86,260 H294 A6,6 0 0 1 300,266 V282 A6,6 0 0 1 294,288 H86 A6,6 0 0 1 80,282 V266 A6,6 0 0 1 86,260 Z" />
  <path fill="#FFFFFF" stroke="#1E5AA8" stroke-width="1" d="M88,264 H292 A4,4 0 0 1 296,268 V280 A4,4 0 0 1 292,284 H88 A4,4 0 0 1 84,280 V268 A4,4 0 0 1 88,264 Z" />
  <text x="190" y="279" font-family="Consolas, monospace" font-size="12" font-weight="600" fill="#1E5AA8" text-anchor="middle">/cmsLogin?redirect=%2F</text>

  
  <text x="80" y="318" font-family="Microsoft YaHei, Arial, sans-serif" font-size="12" fill="#5A8FC0">攻击者可利用该路径直接访问后台管理登录页面，</text>
  <text x="80" y="338" font-family="Microsoft YaHei, Arial, sans-serif" font-size="12" fill="#5A8FC0">通过弱口令或社工手段获取管理权限</text>

  
  <path fill="#1E5AA8" d="M92,356 H136 A12,12 0 0 1 148,368 V368 A12,12 0 0 1 136,380 H92 A12,12 0 0 1 80,368 V368 A12,12 0 0 1 92,356 Z" />
  <text x="114" y="372" font-family="Microsoft YaHei, Arial, sans-serif" font-size="10" font-weight="700" fill="#FFFFFF" text-anchor="middle">高风险</text>

  
  <path fill="#F0FDF4" stroke="#BBF7D0" stroke-width="1.5" d="M642,110 H1218 A12,12 0 0 1 1230,122 V658 A12,12 0 0 1 1218,670 H642 A12,12 0 0 1 630,658 V122 A12,12 0 0 1 642,110 Z" />
  <path fill="#16A34A" d="M633,110 H1227 A3,3 0 0 1 1230,113 V114 A3,3 0 0 1 1227,117 H633 A3,3 0 0 1 630,114 V113 A3,3 0 0 1 633,110 Z" />

  <path fill="#16A34A" d="M674,138 H726 A14,14 0 0 1 740,152 V152 A14,14 0 0 1 726,166 H674 A14,14 0 0 1 660,152 V152 A14,14 0 0 1 674,138 Z" />
  <text x="700" y="157" font-family="Microsoft YaHei, Arial, sans-serif" font-size="12" font-weight="700" fill="#FFFFFF" text-anchor="middle">应对策略</text>

  
  <path fill="#DCFCE7" d="M670,184 H702 A10,10 0 0 1 712,194 V226 A10,10 0 0 1 702,236 H670 A10,10 0 0 1 660,226 V194 A10,10 0 0 1 670,184 Z" />
  <text x="686" y="220" font-family="Arial, sans-serif" font-size="26" fill="#16A34A" text-anchor="middle" font-weight="900">✓</text>

  <text x="730" y="205" font-family="Microsoft YaHei, Arial, sans-serif" font-size="16" font-weight="800" fill="#14532D">分阶段消除公网暴露</text>
  <text x="730" y="228" font-family="Microsoft YaHei, Arial, sans-serif" font-size="13" fill="#4A7A60">从临时止血到长期治本，层层递进</text>

  
  <path fill="#FFFFFF" stroke="#D1FAE5" stroke-width="1" d="M668,262 H1202 A8,8 0 0 1 1210,270 V374 A8,8 0 0 1 1202,382 H668 A8,8 0 0 1 660,374 V270 A8,8 0 0 1 668,262 Z" />
  <path fill="#F59E0B" d="M662,262 H663 A2,2 0 0 1 665,264 V380 A2,2 0 0 1 663,382 H662 A2,2 0 0 1 660,380 V264 A2,2 0 0 1 662,262 Z" />
  <path fill="#FEF3C7" d="M684,280 H740 A4,4 0 0 1 744,284 V300 A4,4 0 0 1 740,304 H684 A4,4 0 0 1 680,300 V284 A4,4 0 0 1 684,280 Z" />
  <text x="712" y="297" font-family="Microsoft YaHei, Arial, sans-serif" font-size="11" font-weight="700" fill="#D97706" text-anchor="middle">临时</text>
  <text x="756" y="297" font-family="Microsoft YaHei, Arial, sans-serif" font-size="13" font-weight="700" fill="#1C2A1C">后台路径随机化 + 强制强认证</text>
  <text x="680" y="325" font-family="Microsoft YaHei, Arial, sans-serif" font-size="12" fill="#4A7A60">将 /cmsLogin 路径改为随机化路径（如 /admin-a7x2），</text>
  <text x="680" y="344" font-family="Microsoft YaHei, Arial, sans-serif" font-size="12" fill="#4A7A60">降低被自动化扫描工具发现的概率</text>

  
  <path fill="#FFFFFF" stroke="#D1FAE5" stroke-width="1" d="M668,394 H1202 A8,8 0 0 1 1210,402 V506 A8,8 0 0 1 1202,514 H668 A8,8 0 0 1 660,506 V402 A8,8 0 0 1 668,394 Z" />
  <path fill="#3B82F6" d="M662,394 H663 A2,2 0 0 1 665,396 V512 A2,2 0 0 1 663,514 H662 A2,2 0 0 1 660,512 V396 A2,2 0 0 1 662,394 Z" />
  <path fill="#DBEAFE" d="M684,412 H740 A4,4 0 0 1 744,416 V432 A4,4 0 0 1 740,436 H684 A4,4 0 0 1 680,432 V416 A4,4 0 0 1 684,412 Z" />
  <text x="712" y="429" font-family="Microsoft YaHei, Arial, sans-serif" font-size="11" font-weight="700" fill="#1A56DB" text-anchor="middle">中期</text>
  <text x="756" y="429" font-family="Microsoft YaHei, Arial, sans-serif" font-size="13" font-weight="700" fill="#1C2A1C">接入双因素认证（2FA）</text>
  <text x="680" y="457" font-family="Microsoft YaHei, Arial, sans-serif" font-size="12" fill="#4A7A60">所有管理后台账户强制启用短信或邮箱 2FA 验证，</text>
  <text x="680" y="476" font-family="Microsoft YaHei, Arial, sans-serif" font-size="12" fill="#4A7A60">即使密码泄露也能防止账户被接管</text>

  
  <path fill="#FFFFFF" stroke="#D1FAE5" stroke-width="1" d="M668,526 H1202 A8,8 0 0 1 1210,534 V638 A8,8 0 0 1 1202,646 H668 A8,8 0 0 1 660,638 V534 A8,8 0 0 1 668,526 Z" />
  <path fill="#16A34A" d="M662,526 H663 A2,2 0 0 1 665,528 V644 A2,2 0 0 1 663,646 H662 A2,2 0 0 1 660,644 V528 A2,2 0 0 1 662,526 Z" />
  <path fill="#DCFCE7" d="M684,544 H740 A4,4 0 0 1 744,548 V564 A4,4 0 0 1 740,568 H684 A4,4 0 0 1 680,564 V548 A4,4 0 0 1 684,544 Z" />
  <text x="712" y="561" font-family="Microsoft YaHei, Arial, sans-serif" font-size="11" font-weight="700" fill="#16A34A" text-anchor="middle">长期</text>
  <text x="756" y="561" font-family="Microsoft YaHei, Arial, sans-serif" font-size="13" font-weight="700" fill="#1C2A1C">VPN 内网访问，移除公网登录入口</text>
  <text x="680" y="589" font-family="Microsoft YaHei, Arial, sans-serif" font-size="12" fill="#4A7A60">VPN 打通后，将后台登录页面从公网完全移除，</text>
  <text x="680" y="608" font-family="Microsoft YaHei, Arial, sans-serif" font-size="12" fill="#4A7A60">仅允许通过 VPN 隧道从内网访问</text>

  
  <text x="640" y="700" font-family="Arial, sans-serif" font-size="11" fill="#A0BDD8" text-anchor="middle">5 / 6</text>
</svg>